<svg xmlns="http://www.w3.org/2000/svg" width="1200" height="760" viewBox="0 0 1200 760">
<rect width="1200" height="760" fill="#ffffff"/>
<style>
text { font-family: Inter, Helvetica, Arial, sans-serif; }
.title { font-size: 27px; font-weight: 700; fill: #17212b; }
.subtitle { font-size: 14px; fill: #445364; }
.conclusion { font-size: 13px; font-weight: 700; letter-spacing: 1px; fill: #185f8d; }
.card-label, .panel-title { font-size: 11px; font-weight: 700; letter-spacing: 1px; fill: #526273; }
.card-status { font-size: 14px; font-weight: 700; }
.card-body, .body { font-size: 12px; fill: #445364; }
.base { font-family: "SFMono-Regular", Consolas, monospace; font-size: 11px; font-weight: 600; text-anchor: middle; fill: #17212b; }
.junction { font-size: 10px; font-weight: 700; fill: #8b4a25; }
.legend { font-size: 10px; fill: #687786; }
.protein-status { font-size: 12px; font-weight: 700; letter-spacing: 1px; }
.protein-sequence { font-family: "SFMono-Regular", Consolas, monospace; font-size: 15px; font-weight: 600; fill: #17212b; }
.interpretation { font-size: 13px; font-weight: 600; fill: #263544; }
.footer { font-size: 9px; fill: #687786; }
</style>
<text x="32" y="48" class="title">DSCAML1 :: ESRRG</text>
<text x="32" y="75" class="subtitle">Interchromosomal structural variant · chr1:216833625 to chr11:117581568 (GRCh38)</text>
<rect x="32" y="94" width="1136" height="30" rx="7" fill="#dceefa"/>
<text x="50" y="114" class="conclusion">DNA ONLY · NO TRANSCRIBED PRODUCT ESTABLISHED</text>

<rect x="32" y="140" width="272" height="132" rx="8" fill="#dff4e9"/>
<text x="50" y="166" class="card-label">DNA</text>
<text x="50" y="190" class="card-status" fill="#176b4d">DETECTED</text>
<text x="50" y="213" class="card-body">106 split reads across the prioritized DNA</text><text x="50" y="230" class="card-body">catalog; seen in four samples.</text>
<rect x="316" y="140" width="272" height="132" rx="8" fill="#f8e3e7"/>
<text x="334" y="166" class="card-label">SHORT-READ RNA</text>
<text x="334" y="190" class="card-status" fill="#7a2938">NOT DETECTED</text>
<text x="334" y="213" class="card-body">Zero RNA split reads in the prioritized</text><text x="334" y="230" class="card-body">fusion catalog.</text>
<rect x="600" y="140" width="272" height="132" rx="8" fill="#eef2f5"/>
<text x="618" y="166" class="card-label">SHORT-READ + ASSEMBLY</text>
<text x="618" y="190" class="card-status" fill="#596776">NOT ASSESSED</text>
<text x="618" y="213" class="card-body">No RNA junction exists to assemble into a</text><text x="618" y="230" class="card-body">transcript haplotype.</text>
<rect x="884" y="140" width="272" height="132" rx="8" fill="#f8e3e7"/>
<text x="902" y="166" class="card-label">LONG-READ RNA</text>
<text x="902" y="190" class="card-status" fill="#7a2938">NOT DETECTED</text>
<text x="902" y="213" class="card-body">No matching CTAT-LR-Fusion call in the</text><text x="902" y="230" class="card-body">osteosarc catalog.</text>
<text x="32" y="319" class="panel-title">1 · OBSERVED OR INFERRED JUNCTION SEQUENCE</text><text x="32" y="345" class="body">DSCAML1 / chr1 to ESRRG / chr11</text><rect x="185" y="363" width="8" height="24" rx="2" fill="#dceefa"/><text x="189" y="380" class="base">T</text><rect x="194" y="363" width="8" height="24" rx="2" fill="#dceefa"/><text x="198" y="380" class="base">T</text><rect x="203" y="363" width="8" height="24" rx="2" fill="#dceefa"/><text x="207" y="380" class="base">G</text><rect x="212" y="363" width="8" height="24" rx="2" fill="#dceefa"/><text x="216" y="380" class="base">T</text><rect x="221" y="363" width="8" height="24" rx="2" fill="#dceefa"/><text x="225" y="380" class="base">T</text><rect x="230" y="363" width="8" height="24" rx="2" fill="#dceefa"/><text x="234" y="380" class="base">G</text><rect x="239" y="363" width="8" height="24" rx="2" fill="#dceefa"/><text x="243" y="380" class="base">T</text><rect x="248" y="363" width="8" height="24" rx="2" fill="#dceefa"/><text x="252" y="380" class="base">T</text><rect x="257" y="363" width="8" height="24" rx="2" fill="#dceefa"/><text x="261" y="380" class="base">C</text><rect x="266" y="363" width="8" height="24" rx="2" fill="#dceefa"/><text x="270" y="380" class="base">T</text><rect x="275" y="363" width="8" height="24" rx="2" fill="#dceefa"/><text x="279" y="380" class="base">T</text><rect x="284" y="363" width="8" height="24" rx="2" fill="#dceefa"/><text x="288" y="380" class="base">T</text><rect x="293" y="363" width="8" height="24" rx="2" fill="#dceefa"/><text x="297" y="380" class="base">T</text><rect x="302" y="363" width="8" height="24" rx="2" fill="#dceefa"/><text x="306" y="380" class="base">C</text><rect x="311" y="363" width="8" height="24" rx="2" fill="#dceefa"/><text x="315" y="380" class="base">C</text><rect x="320" y="363" width="8" height="24" rx="2" fill="#dceefa"/><text x="324" y="380" class="base">T</text><rect x="329" y="363" width="8" height="24" rx="2" fill="#dceefa"/><text x="333" y="380" class="base">A</text><rect x="338" y="363" width="8" height="24" rx="2" fill="#dceefa"/><text x="342" y="380" class="base">C</text><rect x="347" y="363" width="8" height="24" rx="2" fill="#dceefa"/><text x="351" y="380" class="base">T</text><rect x="356" y="363" width="8" height="24" rx="2" fill="#dceefa"/><text x="360" y="380" class="base">C</text><rect x="365" y="363" width="8" height="24" rx="2" fill="#dceefa"/><text x="369" y="380" class="base">C</text><rect x="374" y="363" width="8" height="24" rx="2" fill="#dceefa"/><text x="378" y="380" class="base">T</text><rect x="383" y="363" width="8" height="24" rx="2" fill="#dceefa"/><text x="387" y="380" class="base">C</text><rect x="392" y="363" width="8" height="24" rx="2" fill="#dceefa"/><text x="396" y="380" class="base">T</text><rect x="401" y="363" width="8" height="24" rx="2" fill="#dceefa"/><text x="405" y="380" class="base">T</text><rect x="410" y="363" width="8" height="24" rx="2" fill="#dceefa"/><text x="414" y="380" class="base">T</text><rect x="419" y="363" width="8" height="24" rx="2" fill="#dceefa"/><text x="423" y="380" class="base">A</text><rect x="428" y="363" width="8" height="24" rx="2" fill="#dceefa"/><text x="432" y="380" class="base">A</text><rect x="437" y="363" width="8" height="24" rx="2" fill="#dceefa"/><text x="441" y="380" class="base">A</text><rect x="446" y="363" width="8" height="24" rx="2" fill="#dceefa"/><text x="450" y="380" class="base">A</text><rect x="455" y="363" width="8" height="24" rx="2" fill="#dceefa"/><text x="459" y="380" class="base">A</text><rect x="464" y="363" width="8" height="24" rx="2" fill="#dceefa"/><text x="468" y="380" class="base">G</text><rect x="473" y="363" width="8" height="24" rx="2" fill="#dceefa"/><text x="477" y="380" class="base">A</text><rect x="482" y="363" width="8" height="24" rx="2" fill="#dceefa"/><text x="486" y="380" class="base">G</text><rect x="491" y="363" width="8" height="24" rx="2" fill="#dceefa"/><text x="495" y="380" class="base">C</text><rect x="500" y="363" width="8" height="24" rx="2" fill="#dceefa"/><text x="504" y="380" class="base">A</text><rect x="509" y="363" width="8" height="24" rx="2" fill="#dceefa"/><text x="513" y="380" class="base">G</text><rect x="518" y="363" width="8" height="24" rx="2" fill="#dceefa"/><text x="522" y="380" class="base">C</text><rect x="527" y="363" width="8" height="24" rx="2" fill="#dceefa"/><text x="531" y="380" class="base">C</text><rect x="536" y="363" width="8" height="24" rx="2" fill="#dceefa"/><text x="540" y="380" class="base">A</text><rect x="545" y="363" width="8" height="24" rx="2" fill="#dceefa"/><text x="549" y="380" class="base">A</text><rect x="554" y="363" width="8" height="24" rx="2" fill="#dceefa"/><text x="558" y="380" class="base">T</text><rect x="563" y="363" width="8" height="24" rx="2" fill="#fde7df"/><text x="567" y="380" class="base">C</text><rect x="572" y="363" width="8" height="24" rx="2" fill="#fde7df"/><text x="576" y="380" class="base">T</text><rect x="581" y="363" width="8" height="24" rx="2" fill="#fde7df"/><text x="585" y="380" class="base">G</text><rect x="590" y="363" width="8" height="24" rx="2" fill="#fde7df"/><text x="594" y="380" class="base">G</text><rect x="599" y="363" width="8" height="24" rx="2" fill="#fde7df"/><text x="603" y="380" class="base">C</text><rect x="608" y="363" width="8" height="24" rx="2" fill="#fde7df"/><text x="612" y="380" class="base">T</text><rect x="617" y="363" width="8" height="24" rx="2" fill="#fde7df"/><text x="621" y="380" class="base">T</text><rect x="626" y="363" width="8" height="24" rx="2" fill="#fde7df"/><text x="630" y="380" class="base">C</text><rect x="635" y="363" width="8" height="24" rx="2" fill="#fde7df"/><text x="639" y="380" class="base">T</text><rect x="644" y="363" width="8" height="24" rx="2" fill="#fde7df"/><text x="648" y="380" class="base">T</text><rect x="653" y="363" width="8" height="24" rx="2" fill="#fde7df"/><text x="657" y="380" class="base">T</text><rect x="662" y="363" width="8" height="24" rx="2" fill="#fde7df"/><text x="666" y="380" class="base">C</text><rect x="671" y="363" width="8" height="24" rx="2" fill="#fde7df"/><text x="675" y="380" class="base">A</text><rect x="680" y="363" width="8" height="24" rx="2" fill="#fde7df"/><text x="684" y="380" class="base">C</text><rect x="689" y="363" width="8" height="24" rx="2" fill="#fde7df"/><text x="693" y="380" class="base">T</text><rect x="698" y="363" width="8" height="24" rx="2" fill="#fde7df"/><text x="702" y="380" class="base">T</text><rect x="707" y="363" width="8" height="24" rx="2" fill="#fde7df"/><text x="711" y="380" class="base">A</text><rect x="716" y="363" width="8" height="24" rx="2" fill="#fde7df"/><text x="720" y="380" class="base">G</text><rect x="725" y="363" width="8" height="24" rx="2" fill="#fde7df"/><text x="729" y="380" class="base">T</text><rect x="734" y="363" width="8" height="24" rx="2" fill="#fde7df"/><text x="738" y="380" class="base">A</text><rect x="743" y="363" width="8" height="24" rx="2" fill="#fde7df"/><text x="747" y="380" class="base">C</text><rect x="752" y="363" width="8" height="24" rx="2" fill="#fde7df"/><text x="756" y="380" class="base">A</text><rect x="761" y="363" width="8" height="24" rx="2" fill="#fde7df"/><text x="765" y="380" class="base">A</text><rect x="770" y="363" width="8" height="24" rx="2" fill="#fde7df"/><text x="774" y="380" class="base">T</text><rect x="779" y="363" width="8" height="24" rx="2" fill="#fde7df"/><text x="783" y="380" class="base">G</text><rect x="788" y="363" width="8" height="24" rx="2" fill="#fde7df"/><text x="792" y="380" class="base">C</text><rect x="797" y="363" width="8" height="24" rx="2" fill="#fde7df"/><text x="801" y="380" class="base">A</text><rect x="806" y="363" width="8" height="24" rx="2" fill="#fde7df"/><text x="810" y="380" class="base">T</text><rect x="815" y="363" width="8" height="24" rx="2" fill="#fde7df"/><text x="819" y="380" class="base">C</text><rect x="824" y="363" width="8" height="24" rx="2" fill="#fde7df"/><text x="828" y="380" class="base">T</text><rect x="833" y="363" width="8" height="24" rx="2" fill="#fde7df"/><text x="837" y="380" class="base">G</text><rect x="842" y="363" width="8" height="24" rx="2" fill="#fde7df"/><text x="846" y="380" class="base">A</text><rect x="851" y="363" width="8" height="24" rx="2" fill="#fde7df"/><text x="855" y="380" class="base">A</text><rect x="860" y="363" width="8" height="24" rx="2" fill="#fde7df"/><text x="864" y="380" class="base">C</text><rect x="869" y="363" width="8" height="24" rx="2" fill="#fde7df"/><text x="873" y="380" class="base">A</text><rect x="878" y="363" width="8" height="24" rx="2" fill="#fde7df"/><text x="882" y="380" class="base">T</text><rect x="887" y="363" width="8" height="24" rx="2" fill="#fde7df"/><text x="891" y="380" class="base">T</text><rect x="896" y="363" width="8" height="24" rx="2" fill="#fde7df"/><text x="900" y="380" class="base">A</text><rect x="905" y="363" width="8" height="24" rx="2" fill="#fde7df"/><text x="909" y="380" class="base">A</text><rect x="914" y="363" width="8" height="24" rx="2" fill="#fde7df"/><text x="918" y="380" class="base">G</text><rect x="923" y="363" width="8" height="24" rx="2" fill="#fde7df"/><text x="927" y="380" class="base">C</text><rect x="932" y="363" width="8" height="24" rx="2" fill="#fde7df"/><text x="936" y="380" class="base">A</text><line x1="562" y1="355" x2="562" y2="397" stroke="#8b4a25" stroke-width="2"/><text x="562" y="416" text-anchor="middle" class="junction">junction</text><text x="185" y="439" class="legend">DSCAML1 / chr1 side</text><text x="941" y="439" text-anchor="end" class="legend">ESRRG / chr11 side</text>
<text x="32" y="476" class="panel-title">2 · PROTEIN-LEVEL INTERPRETATION</text>
<rect x="32" y="492" width="1136" height="86" rx="8" fill="#fff2c2"/><text x="52" y="520" class="protein-status" fill="#755400">PROTEIN WITHHELD</text><text x="52" y="552" class="body">No RNA-supported transcript junction; genomic breakends alone do not define a spliced coding frame.</text>
<rect x="32" y="600" width="1136" height="65" rx="8" fill="#eef3f7"/>
<text x="52" y="625" class="panel-title">SCIENTIFIC INTERPRETATION</text>
<text x="52" y="648" class="interpretation">DNA establishes a somatic rearrangement, but not expression, transcript structure, or a fusion protein.</text>
<line x1="32" y1="694" x2="1168" y2="694" stroke="#d8e0e7"/>
<text x="32" y="717" class="footer">https://osteosarc.com/fusions/dscaml1--esrrg/ · https://osteosarc.com/fusions/tables/prioritized.tsv</text>
<text x="1168" y="739" text-anchor="end" class="footer">Vaxrank 3.17.4 · sequence evidence, not a clinical recommendation</text>
</svg>